<svg 
 xmlns="http://www.w3.org/2000/svg"
 xmlns:xlink="http://www.w3.org/1999/xlink"
 width="10px" height="8px">
<path fill-rule="evenodd" fill="rgb(28, 184, 255)"
 d="M0.115,4.386 C0.038,4.305 -0.000,4.185 -0.000,4.105 C-0.000,4.024 0.038,3.904 0.115,3.824 L0.654,3.261 C0.808,3.101 1.038,3.101 1.192,3.261 L1.231,3.302 L3.346,5.671 C3.423,5.751 3.538,5.751 3.615,5.671 L8.769,0.089 L8.807,0.089 L8.807,0.089 C8.961,-0.072 9.192,-0.072 9.346,0.089 L9.884,0.651 C10.038,0.812 10.038,1.053 9.884,1.213 L9.884,1.213 L3.731,7.879 C3.654,7.960 3.577,8.000 3.461,8.000 C3.346,8.000 3.269,7.960 3.192,7.879 L0.192,4.506 L0.115,4.386 L0.115,4.386 Z"/>
</svg>